<?xml version="1.0" encoding="us-ascii" standalone="no"?><svg xmlns="http://www.w3.org/2000/svg" xmlns:xlink="http://www.w3.org/1999/xlink" contentStyleType="text/css" height="101px" preserveAspectRatio="none" style="width:857px;height:101px;background:#FFFFFF;" version="1.1" viewBox="0 0 857 101" width="857px" zoomAndPan="magnify"><defs><filter height="1" id="bn4hxjb99j7zr0" width="1" x="0" y="0"><feFlood flood-color="#9932CC" result="flood"/><feComposite in="SourceGraphic" in2="flood" operator="over"/></filter><filter height="1" id="bn4hxjb99j7zr1" width="1" x="0" y="0"><feFlood flood-color="#FFFFFF" result="flood"/><feComposite in="SourceGraphic" in2="flood" operator="over"/></filter><filter height="1" id="bn4hxjb99j7zr2" width="1" x="0" y="0"><feFlood flood-color="#ADD8E6" result="flood"/><feComposite in="SourceGraphic" in2="flood" operator="over"/></filter><filter height="1" id="bn4hxjb99j7zr3" width="1" x="0" y="0"><feFlood flood-color="#90EE90" result="flood"/><feComposite in="SourceGraphic" in2="flood" operator="over"/></filter><filter height="1" id="bn4hxjb99j7zr4" width="1" x="0" y="0"><feFlood flood-color="#FFA500" result="flood"/><feComposite in="SourceGraphic" in2="flood" operator="over"/></filter><filter height="1" id="bn4hxjb99j7zr5" width="1" x="0" y="0"><feFlood flood-color="#FFFF00" result="flood"/><feComposite in="SourceGraphic" in2="flood" operator="over"/></filter><filter height="1" id="bn4hxjb99j7zr6" width="1" x="0" y="0"><feFlood flood-color="#FFC0CB" result="flood"/><feComposite in="SourceGraphic" in2="flood" operator="over"/></filter><filter height="1" id="bn4hxjb99j7zr7" width="1" x="0" y="0"><feFlood flood-color="#DDA0DD" result="flood"/><feComposite in="SourceGraphic" in2="flood" operator="over"/></filter></defs><g><!--class Bob--><g id="elem_Bob"><rect fill="#F1F1F1" height="48" id="Bob" rx="2.5" ry="2.5" style="stroke:#181818;stroke-width:0.5;" width="61" x="7" y="27"/><ellipse cx="22" cy="43" fill="#ADD1B2" rx="11" ry="11" style="stroke:#181818;stroke-width:1.0;"/><path d="M24.3438,38.6719 C23.4063,38.2344 22.8125,38.0938 21.9375,38.0938 C19.3125,38.0938 17.3125,40.1719 17.3125,42.8906 L17.3125,44.0156 C17.3125,46.5938 19.4219,48.4844 22.3125,48.4844 C23.5313,48.4844 24.6875,48.1875 25.4375,47.6406 C26.0156,47.2344 26.3438,46.7813 26.3438,46.3906 C26.3438,45.9375 25.9531,45.5469 25.4844,45.5469 C25.2656,45.5469 25.0625,45.625 24.875,45.8125 C24.4219,46.2969 24.4219,46.2969 24.2344,46.3906 C23.8125,46.6563 23.125,46.7813 22.3594,46.7813 C20.3125,46.7813 19.0156,45.6875 19.0156,43.9844 L19.0156,42.8906 C19.0156,41.1094 20.2656,39.7969 22,39.7969 C22.5781,39.7969 23.1875,39.9531 23.6563,40.2031 C24.1406,40.4844 24.3125,40.7031 24.4063,41.1094 C24.4688,41.5156 24.5,41.6406 24.6406,41.7656 C24.7813,41.9063 25.0156,42.0156 25.2344,42.0156 C25.5,42.0156 25.7656,41.875 25.9375,41.6563 C26.0469,41.5 26.0781,41.3125 26.0781,40.8906 L26.0781,39.4688 C26.0781,39.0313 26.0625,38.9063 25.9688,38.75 C25.8125,38.4844 25.5313,38.3438 25.2344,38.3438 C24.9375,38.3438 24.7344,38.4375 24.5156,38.75 L24.3438,38.6719 Z " fill="#000000"/><text fill="#000000" font-family="sans-serif" font-size="14" lengthAdjust="spacing" textLength="29" x="36" y="47.8467">Bob</text><line style="stroke:#181818;stroke-width:0.5;" x1="8" x2="67" y1="59" y2="59"/><line style="stroke:#181818;stroke-width:0.5;" x1="8" x2="67" y1="67" y2="67"/></g><!--class Alice--><g id="elem_Alice"><rect fill="#F1F1F1" height="48" id="Alice" rx="2.5" ry="2.5" style="stroke:#181818;stroke-width:0.5;" width="67" x="323" y="27"/><ellipse cx="338" cy="43" fill="#ADD1B2" rx="11" ry="11" style="stroke:#181818;stroke-width:1.0;"/><path d="M340.3438,38.6719 C339.4063,38.2344 338.8125,38.0938 337.9375,38.0938 C335.3125,38.0938 333.3125,40.1719 333.3125,42.8906 L333.3125,44.0156 C333.3125,46.5938 335.4219,48.4844 338.3125,48.4844 C339.5313,48.4844 340.6875,48.1875 341.4375,47.6406 C342.0156,47.2344 342.3438,46.7813 342.3438,46.3906 C342.3438,45.9375 341.9531,45.5469 341.4844,45.5469 C341.2656,45.5469 341.0625,45.625 340.875,45.8125 C340.4219,46.2969 340.4219,46.2969 340.2344,46.3906 C339.8125,46.6563 339.125,46.7813 338.3594,46.7813 C336.3125,46.7813 335.0156,45.6875 335.0156,43.9844 L335.0156,42.8906 C335.0156,41.1094 336.2656,39.7969 338,39.7969 C338.5781,39.7969 339.1875,39.9531 339.6563,40.2031 C340.1406,40.4844 340.3125,40.7031 340.4063,41.1094 C340.4688,41.5156 340.5,41.6406 340.6406,41.7656 C340.7813,41.9063 341.0156,42.0156 341.2344,42.0156 C341.5,42.0156 341.7656,41.875 341.9375,41.6563 C342.0469,41.5 342.0781,41.3125 342.0781,40.8906 L342.0781,39.4688 C342.0781,39.0313 342.0625,38.9063 341.9688,38.75 C341.8125,38.4844 341.5313,38.3438 341.2344,38.3438 C340.9375,38.3438 340.7344,38.4375 340.5156,38.75 L340.3438,38.6719 Z " fill="#000000"/><text fill="#000000" font-family="sans-serif" font-size="14" lengthAdjust="spacing" textLength="35" x="352" y="47.8467">Alice</text><line style="stroke:#181818;stroke-width:0.5;" x1="324" x2="389" y1="59" y2="59"/><line style="stroke:#181818;stroke-width:0.5;" x1="324" x2="389" y1="67" y2="67"/></g><!--entity risks--><g id="elem_risks"><rect fill="#FFFFFF" height="88.3516" rx="2.5" ry="2.5" style="stroke:#000000;stroke-width:0.5;" width="426" x="425.5" y="7"/><text fill="#000000" font-family="sans-serif" font-size="15" font-weight="bold" lengthAdjust="spacing" textLength="152" x="435.5" y="23.9233">Aggregated Risks</text><line style="stroke:#000000;stroke-width:1.0;" x1="426.5" x2="850.5" y1="27.4609" y2="27.4609"/><text fill="#FFFFFF" filter="url(#bn4hxjb99j7zr0)" font-family="monospace" font-size="14" font-weight="bold" lengthAdjust="spacing" textLength="31" x="435.5" y="44.4561">&#160;R1&#160;</text><text fill="#000000" font-family="sans-serif" font-size="14" lengthAdjust="spacing" textLength="264" x="470.5" y="44.4561">Details of aggregated risk number 1.</text><text fill="#000000" font-family="sans-serif" font-size="14" lengthAdjust="spacing" textLength="406" x="435.5" y="60.7529">This could be a very long description or a very short one!</text><line style="stroke:#000000;stroke-width:1.0;" x1="426.5" x2="850.5" y1="68.0547" y2="68.0547"/><text fill="#FFFFFF" filter="url(#bn4hxjb99j7zr0)" font-family="monospace" font-size="14" font-weight="bold" lengthAdjust="spacing" textLength="31" x="435.5" y="85.0498">&#160;R2&#160;</text><text fill="#000000" font-family="sans-serif" font-size="14" lengthAdjust="spacing" textLength="258" x="470.5" y="85.0498">Details of aggregated risk number 2</text></g><!--link Bob to Alice--><g id="link_Bob_Alice"><path codeLine="3" d="M68.0871,51 C126.332,51 253.08,51 317.391,51 " fill="none" id="Bob-to-Alice" style="stroke:#181818;stroke-width:1.0;"/><polygon fill="#181818" points="322.663,51,313.663,47,317.663,51,313.663,55,322.663,51" style="stroke:#181818;stroke-width:1.0;"/><text fill="#000000" filter="url(#bn4hxjb99j7zr1)" font-family="monospace" font-size="13" font-weight="bold" lengthAdjust="spacing" textLength="33" x="86.5" y="44.0669">&#160;5:2&#160;</text><text fill="#000000" font-family="sans-serif" font-size="13" lengthAdjust="spacing" textLength="4" x="119.5" y="44.0669">&#160;</text><text fill="#0000FF" filter="url(#bn4hxjb99j7zr2)" font-family="monospace" font-size="13" font-weight="bold" lengthAdjust="spacing" textLength="19" x="123.5" y="44.0669">&#160;S&#160;</text><text fill="#008000" filter="url(#bn4hxjb99j7zr3)" font-family="monospace" font-size="13" font-weight="bold" lengthAdjust="spacing" textLength="21" x="142.5" y="44.0669">&#160;T&#160;</text><text fill="#A52A2A" filter="url(#bn4hxjb99j7zr4)" font-family="monospace" font-size="13" font-weight="bold" lengthAdjust="spacing" textLength="20" x="163.5" y="44.0669">&#160;R&#160;</text><text fill="#B8860B" filter="url(#bn4hxjb99j7zr5)" font-family="monospace" font-size="13" font-weight="bold" lengthAdjust="spacing" textLength="15" x="183.5" y="44.0669">&#160;I&#160;</text><text fill="#B22222" filter="url(#bn4hxjb99j7zr6)" font-family="monospace" font-size="13" font-weight="bold" lengthAdjust="spacing" textLength="21" x="198.5" y="44.0669">&#160;D&#160;</text><text fill="#800080" filter="url(#bn4hxjb99j7zr7)" font-family="monospace" font-size="13" font-weight="bold" lengthAdjust="spacing" textLength="19" x="219.5" y="44.0669">&#160;E&#160;</text><text fill="#000000" font-family="sans-serif" font-size="13" lengthAdjust="spacing" textLength="4" x="238.5" y="44.0669">&#160;</text><text fill="#FFFFFF" filter="url(#bn4hxjb99j7zr0)" font-family="monospace" font-size="13" font-weight="bold" lengthAdjust="spacing" textLength="29" x="242.5" y="44.0669">&#160;R1&#160;</text><text fill="#000000" font-family="sans-serif" font-size="13" lengthAdjust="spacing" textLength="4" x="271.5" y="44.0669">&#160;</text><text fill="#FFFFFF" filter="url(#bn4hxjb99j7zr0)" font-family="monospace" font-size="13" font-weight="bold" lengthAdjust="spacing" textLength="29" x="275.5" y="44.0669">&#160;R2&#160;</text><text fill="#000000" font-family="sans-serif" font-size="13" lengthAdjust="spacing" textLength="31" x="284.1083" y="64.2255">Hello</text></g><!--SRC=[ZOz1IyGm48Nl-HMpeOVkeIrRy5AeiBA2Nhl5YtX8sh4DfacPJ1J_lUcYB7WGvpBCc_aURtR63JQE23Fp6fgg8lLHJeRdg6D06hnZT5mEVgbM5QqcivWqQAm2ancnMAro71TRBSguRx5Sao34dTTGtCBHcW4Ro7gAWP-KZTWfDZwNDqqjzv2TBqmkptttUBhVbECq4KwASUnCU0kvx0vDjztA1xJMIo6oRT4hRJ7VmxC0QDiMhXXSk2GNgLBxvRWP9hSJiZ8sW7y5TKKf7O2BwKM2GvdWVZO11X_j21f1mJlI9rZl9XWn36JMz8m3Jp-hC7jYy0vtVmMe_nMW5YzV]--></g></svg>