<?xml version="1.0" encoding="UTF-8" standalone="no"?><svg xmlns="http://www.w3.org/2000/svg" xmlns:xlink="http://www.w3.org/1999/xlink" contentScriptType="application/ecmascript" contentStyleType="text/css" height="101px" preserveAspectRatio="none" style="width:846px;height:101px;" version="1.1" viewBox="0 0 846 101" width="846px" zoomAndPan="magnify"><defs><filter height="300%" id="fv17dvr512f3c" width="300%" x="-1" y="-1"><feGaussianBlur result="blurOut" stdDeviation="2.0"/><feColorMatrix in="blurOut" result="blurOut2" type="matrix" values="0 0 0 0 0 0 0 0 0 0 0 0 0 0 0 0 0 0 .4 0"/><feOffset dx="4.0" dy="4.0" in="blurOut2" result="blurOut3"/><feBlend in="SourceGraphic" in2="blurOut3" mode="normal"/></filter><filter height="1" id="bv17dvr512f3c0" width="1" x="0" y="0"><feFlood flood-color="#9932CC" result="flood"/><feComposite in="SourceGraphic" in2="flood" operator="over"/></filter><filter height="1" id="bv17dvr512f3c1" width="1" x="0" y="0"><feFlood flood-color="#FFFFFF" result="flood"/><feComposite in="SourceGraphic" in2="flood" operator="over"/></filter><filter height="1" id="bv17dvr512f3c2" width="1" x="0" y="0"><feFlood flood-color="#ADD8E6" result="flood"/><feComposite in="SourceGraphic" in2="flood" operator="over"/></filter><filter height="1" id="bv17dvr512f3c3" width="1" x="0" y="0"><feFlood flood-color="#90EE90" result="flood"/><feComposite in="SourceGraphic" in2="flood" operator="over"/></filter><filter height="1" id="bv17dvr512f3c4" width="1" x="0" y="0"><feFlood flood-color="#FFA500" result="flood"/><feComposite in="SourceGraphic" in2="flood" operator="over"/></filter><filter height="1" id="bv17dvr512f3c5" width="1" x="0" y="0"><feFlood flood-color="#FFFF00" result="flood"/><feComposite in="SourceGraphic" in2="flood" operator="over"/></filter><filter height="1" id="bv17dvr512f3c6" width="1" x="0" y="0"><feFlood flood-color="#FFC0CB" result="flood"/><feComposite in="SourceGraphic" in2="flood" operator="over"/></filter><filter height="1" id="bv17dvr512f3c7" width="1" x="0" y="0"><feFlood flood-color="#DDA0DD" result="flood"/><feComposite in="SourceGraphic" in2="flood" operator="over"/></filter></defs><g><!--MD5=[9f57ac87861df6213de8b6562fe37a6e]
class Bob--><rect fill="#FEFECE" filter="url(#fv17dvr512f3c)" height="48" id="Bob" style="stroke: #A80036; stroke-width: 1.5;" width="56" x="7" y="27"/><ellipse cx="22" cy="43" fill="#ADD1B2" rx="11" ry="11" style="stroke: #A80036; stroke-width: 1.0;"/><path d="M24.3438,38.6719 C23.4063,38.2344 22.8125,38.0938 21.9375,38.0938 C19.3125,38.0938 17.3125,40.1719 17.3125,42.8906 L17.3125,44.0156 C17.3125,46.5938 19.4219,48.4844 22.3125,48.4844 C23.5313,48.4844 24.6875,48.1875 25.4375,47.6406 C26.0156,47.2344 26.3438,46.7813 26.3438,46.3906 C26.3438,45.9375 25.9531,45.5469 25.4844,45.5469 C25.2656,45.5469 25.0625,45.625 24.875,45.8125 C24.4219,46.2969 24.4219,46.2969 24.2344,46.3906 C23.8125,46.6563 23.125,46.7813 22.3594,46.7813 C20.3125,46.7813 19.0156,45.6875 19.0156,43.9844 L19.0156,42.8906 C19.0156,41.1094 20.2656,39.7969 22,39.7969 C22.5781,39.7969 23.1875,39.9531 23.6563,40.2031 C24.1406,40.4844 24.3125,40.7031 24.4063,41.1094 C24.4688,41.5156 24.5,41.6406 24.6406,41.7656 C24.7813,41.9063 25.0156,42.0156 25.2344,42.0156 C25.5,42.0156 25.7656,41.875 25.9375,41.6563 C26.0469,41.5 26.0781,41.3125 26.0781,40.8906 L26.0781,39.4688 C26.0781,39.0313 26.0625,38.9063 25.9688,38.75 C25.8125,38.4844 25.5313,38.3438 25.2344,38.3438 C24.9375,38.3438 24.7344,38.4375 24.5156,38.75 L24.3438,38.6719 Z " fill="#000000"/><text fill="#000000" font-family="sans-serif" font-size="12" lengthAdjust="spacingAndGlyphs" textLength="24" x="36" y="47.1543">Bob</text><line style="stroke: #A80036; stroke-width: 1.5;" x1="8" x2="62" y1="59" y2="59"/><line style="stroke: #A80036; stroke-width: 1.5;" x1="8" x2="62" y1="67" y2="67"/><!--MD5=[1d11bff648c05e5c086236afcf5827b8]
class Alice--><rect fill="#FEFECE" filter="url(#fv17dvr512f3c)" height="48" id="Alice" style="stroke: #A80036; stroke-width: 1.5;" width="61" x="317.5" y="27"/><ellipse cx="332.5" cy="43" fill="#ADD1B2" rx="11" ry="11" style="stroke: #A80036; stroke-width: 1.0;"/><path d="M334.8438,38.6719 C333.9063,38.2344 333.3125,38.0938 332.4375,38.0938 C329.8125,38.0938 327.8125,40.1719 327.8125,42.8906 L327.8125,44.0156 C327.8125,46.5938 329.9219,48.4844 332.8125,48.4844 C334.0313,48.4844 335.1875,48.1875 335.9375,47.6406 C336.5156,47.2344 336.8438,46.7813 336.8438,46.3906 C336.8438,45.9375 336.4531,45.5469 335.9844,45.5469 C335.7656,45.5469 335.5625,45.625 335.375,45.8125 C334.9219,46.2969 334.9219,46.2969 334.7344,46.3906 C334.3125,46.6563 333.625,46.7813 332.8594,46.7813 C330.8125,46.7813 329.5156,45.6875 329.5156,43.9844 L329.5156,42.8906 C329.5156,41.1094 330.7656,39.7969 332.5,39.7969 C333.0781,39.7969 333.6875,39.9531 334.1563,40.2031 C334.6406,40.4844 334.8125,40.7031 334.9063,41.1094 C334.9688,41.5156 335,41.6406 335.1406,41.7656 C335.2813,41.9063 335.5156,42.0156 335.7344,42.0156 C336,42.0156 336.2656,41.875 336.4375,41.6563 C336.5469,41.5 336.5781,41.3125 336.5781,40.8906 L336.5781,39.4688 C336.5781,39.0313 336.5625,38.9063 336.4688,38.75 C336.3125,38.4844 336.0313,38.3438 335.7344,38.3438 C335.4375,38.3438 335.2344,38.4375 335.0156,38.75 L334.8438,38.6719 Z " fill="#000000"/><text fill="#000000" font-family="sans-serif" font-size="12" lengthAdjust="spacingAndGlyphs" textLength="29" x="346.5" y="47.1543">Alice</text><line style="stroke: #A80036; stroke-width: 1.5;" x1="318.5" x2="377.5" y1="59" y2="59"/><line style="stroke: #A80036; stroke-width: 1.5;" x1="318.5" x2="377.5" y1="67" y2="67"/><!--MD5=[6429059bd1a46bd386d5757da6106e41]
entity risks--><rect fill="#FFFFFF" height="88.3516" style="stroke: #000000; stroke-width: 1.5;" width="426" x="414" y="7"/><text fill="#000000" font-family="sans-serif" font-size="15" font-weight="bold" lengthAdjust="spacingAndGlyphs" textLength="152" x="424" y="23.9233">Aggregated Risks</text><line style="stroke: #000000; stroke-width: 1.0;" x1="415" x2="839" y1="27.4609" y2="27.4609"/><text fill="#FFFFFF" filter="url(#bv17dvr512f3c0)" font-family="Consolas" font-size="14" font-weight="bold" lengthAdjust="spacingAndGlyphs" textLength="31" x="424" y="44.4561"> R1 </text><text fill="#000000" font-family="sans-serif" font-size="14" lengthAdjust="spacingAndGlyphs" textLength="264" x="459" y="44.4561">Details of aggregated risk number 1.</text><text fill="#000000" font-family="sans-serif" font-size="14" lengthAdjust="spacingAndGlyphs" textLength="406" x="424" y="60.7529">This could be a very long description or a very short one!</text><line style="stroke: #000000; stroke-width: 1.0;" x1="415" x2="839" y1="68.0547" y2="68.0547"/><text fill="#FFFFFF" filter="url(#bv17dvr512f3c0)" font-family="Consolas" font-size="14" font-weight="bold" lengthAdjust="spacingAndGlyphs" textLength="31" x="424" y="85.0498"> R2 </text><text fill="#000000" font-family="sans-serif" font-size="14" lengthAdjust="spacingAndGlyphs" textLength="258" x="459" y="85.0498">Details of aggregated risk number 2</text><!--MD5=[838606ef52345285279842dbe5b94377]
link Bob to Alice--><path codeLine="3" d="M63.0521,51 C119.972,51 248.962,51 311.986,51 " fill="none" id="Bob-to-Alice" style="stroke: #A80036; stroke-width: 1.0;"/><polygon fill="#A80036" points="317.142,51,308.142,47,312.142,51,308.142,55,317.142,51" style="stroke: #A80036; stroke-width: 1.0;"/><text fill="#000000" filter="url(#bv17dvr512f3c1)" font-family="Consolas" font-size="13" font-weight="bold" lengthAdjust="spacingAndGlyphs" textLength="33" x="81.25" y="44.0669"> 5:2 </text><text fill="#000000" font-family="sans-serif" font-size="13" lengthAdjust="spacingAndGlyphs" textLength="0" x="118.25" y="44.0669"/><text fill="#0000FF" filter="url(#bv17dvr512f3c2)" font-family="Consolas" font-size="13" font-weight="bold" lengthAdjust="spacingAndGlyphs" textLength="19" x="118.25" y="44.0669"> S </text><text fill="#008000" filter="url(#bv17dvr512f3c3)" font-family="Consolas" font-size="13" font-weight="bold" lengthAdjust="spacingAndGlyphs" textLength="21" x="137.25" y="44.0669"> T </text><text fill="#A52A2A" filter="url(#bv17dvr512f3c4)" font-family="Consolas" font-size="13" font-weight="bold" lengthAdjust="spacingAndGlyphs" textLength="20" x="158.25" y="44.0669"> R </text><text fill="#B8860B" filter="url(#bv17dvr512f3c5)" font-family="Consolas" font-size="13" font-weight="bold" lengthAdjust="spacingAndGlyphs" textLength="15" x="178.25" y="44.0669"> I </text><text fill="#B22222" filter="url(#bv17dvr512f3c6)" font-family="Consolas" font-size="13" font-weight="bold" lengthAdjust="spacingAndGlyphs" textLength="21" x="193.25" y="44.0669"> D </text><text fill="#800080" filter="url(#bv17dvr512f3c7)" font-family="Consolas" font-size="13" font-weight="bold" lengthAdjust="spacingAndGlyphs" textLength="19" x="214.25" y="44.0669"> E </text><text fill="#000000" font-family="sans-serif" font-size="13" lengthAdjust="spacingAndGlyphs" textLength="0" x="237.25" y="44.0669"/><text fill="#FFFFFF" filter="url(#bv17dvr512f3c0)" font-family="Consolas" font-size="13" font-weight="bold" lengthAdjust="spacingAndGlyphs" textLength="29" x="237.25" y="44.0669"> R1 </text><text fill="#000000" font-family="sans-serif" font-size="13" lengthAdjust="spacingAndGlyphs" textLength="0" x="270.25" y="44.0669"/><text fill="#FFFFFF" filter="url(#bv17dvr512f3c0)" font-family="Consolas" font-size="13" font-weight="bold" lengthAdjust="spacingAndGlyphs" textLength="29" x="270.25" y="44.0669"> R2 </text><text fill="#000000" font-family="sans-serif" font-size="13" lengthAdjust="spacingAndGlyphs" textLength="31" x="278.464" y="64.3201">Hello</text><!--MD5=[5d2402c94a52db38d06289ed50b927f8]
@startuml
!include https://raw.githubusercontent.com/paulbrimicombe/stride-plantuml/main/stride.puml

Bob -> Alice: $TrustValueRatio("5:2") $Stride("STRIDE") $AggregatedRisks("R1:R2") "Hello"

$RiskTable() [
  === Aggregated Risks
  - - - -
  $AggregatedRisk("R1") Details of aggregated risk number 1.
  This could be a very long description or a very short one!
  - - - -
  $AggregatedRisk("R2") Details of aggregated risk number 2
]
@enduml

@startuml




skinparam card {
  backgroundColor<<risk_table>> White
  BorderColor<<risk_table>> Black
  shadowing<<risk_table>> false  
}



Bob -> Alice: <font:Consolas><b><back:white><color:black> 5:2 </color></back></b></font> <font:Consolas><b><color:#blue><back:#lightblue> S </back></color><color:#green><back:#lightgreen> T </back></color><color:#brown><back:#orange> R </back></color><color:#darkgoldenrod><back:#yellow> I </back></color><color:#firebrick><back:#pink> D </back></color><color:#purple><back:#plum> E </back></color></b></font> <font:Consolas><b><back:#darkorchid><color:#white> R1 </color></back></b></font> <font:Consolas><b><back:#darkorchid><color:#white> R2 </color></back></b></font> "Hello"

hide stereotype
card risks <<risk_table>> [
  === Aggregated Risks
  - - - -
  <font:Consolas><b><back:#darkorchid><color:#white> R1 </color></back></b></font> Details of aggregated risk number 1.
  This could be a very long description or a very short one!
  - - - -
  <font:Consolas><b><back:#darkorchid><color:#white> R2 </color></back></b></font> Details of aggregated risk number 2
]
@enduml

PlantUML version 1.2020.20beta9(Unknown compile time)
(GPL source distribution)
Java Runtime: Java(TM) SE Runtime Environment
JVM: Java HotSpot(TM) 64-Bit Server VM
Default Encoding: UTF-8
Language: en
Country: US
--></g></svg>